<svg width="165" height="80" viewBox="0 0 165 80" fill="none" xmlns="http://www.w3.org/2000/svg">
<path d="M17.4545 36.25C17.2955 35.697 17.072 35.2083 16.7841 34.7841C16.4962 34.3523 16.1439 33.9886 15.7273 33.6932C15.3182 33.3902 14.8485 33.1591 14.3182 33C13.7955 32.8409 13.2159 32.7614 12.5795 32.7614C11.3902 32.7614 10.3447 33.0568 9.44318 33.6477C8.54924 34.2386 7.85227 35.0985 7.35227 36.2273C6.85227 37.3485 6.60227 38.7197 6.60227 40.3409C6.60227 41.9621 6.84849 43.3409 7.34091 44.4773C7.83333 45.6136 8.5303 46.4811 9.43182 47.0795C10.3333 47.6705 11.3977 47.9659 12.625 47.9659C13.7386 47.9659 14.6894 47.7689 15.4773 47.375C16.2727 46.9735 16.8788 46.4091 17.2955 45.6818C17.7197 44.9545 17.9318 44.0947 17.9318 43.1023L18.9318 43.25H12.9318V39.5455H22.6705V42.4773C22.6705 44.5227 22.2386 46.2803 21.375 47.75C20.5114 49.2121 19.322 50.3409 17.8068 51.1364C16.2917 51.9242 14.5568 52.3182 12.6023 52.3182C10.4205 52.3182 8.50379 51.8371 6.85227 50.875C5.20076 49.9053 3.91288 48.5303 2.98864 46.75C2.07197 44.9621 1.61364 42.8409 1.61364 40.3864C1.61364 38.5 1.88636 36.8182 2.43182 35.3409C2.98485 33.8561 3.75758 32.5985 4.75 31.5682C5.74242 30.5379 6.89773 29.7538 8.21591 29.2159C9.53409 28.678 10.9621 28.4091 12.5 28.4091C13.8182 28.4091 15.0455 28.6023 16.1818 28.9886C17.3182 29.3674 18.3258 29.9053 19.2045 30.6023C20.0909 31.2992 20.8144 32.1288 21.375 33.0909C21.9356 34.0455 22.2955 35.0985 22.4545 36.25H17.4545ZM34.1619 52.3409C32.3968 52.3409 30.8703 51.9659 29.5824 51.2159C28.3021 50.4583 27.3134 49.4053 26.6165 48.0568C25.9195 46.7008 25.571 45.1288 25.571 43.3409C25.571 41.5379 25.9195 39.9621 26.6165 38.6136C27.3134 37.2576 28.3021 36.2045 29.5824 35.4545C30.8703 34.697 32.3968 34.3182 34.1619 34.3182C35.9271 34.3182 37.4498 34.697 38.7301 35.4545C40.018 36.2045 41.0104 37.2576 41.7074 38.6136C42.4044 39.9621 42.7528 41.5379 42.7528 43.3409C42.7528 45.1288 42.4044 46.7008 41.7074 48.0568C41.0104 49.4053 40.018 50.4583 38.7301 51.2159C37.4498 51.9659 35.9271 52.3409 34.1619 52.3409ZM34.1847 48.5909C34.9877 48.5909 35.6581 48.3636 36.196 47.9091C36.7339 47.447 37.1392 46.8182 37.4119 46.0227C37.6922 45.2273 37.8324 44.322 37.8324 43.3068C37.8324 42.2917 37.6922 41.3864 37.4119 40.5909C37.1392 39.7955 36.7339 39.1667 36.196 38.7045C35.6581 38.2424 34.9877 38.0114 34.1847 38.0114C33.3741 38.0114 32.6922 38.2424 32.1392 38.7045C31.5938 39.1667 31.1809 39.7955 30.9006 40.5909C30.6278 41.3864 30.4915 42.2917 30.4915 43.3068C30.4915 44.322 30.6278 45.2273 30.9006 46.0227C31.1809 46.8182 31.5938 47.447 32.1392 47.9091C32.6922 48.3636 33.3741 48.5909 34.1847 48.5909ZM53.7869 52.3409C52.0218 52.3409 50.4953 51.9659 49.2074 51.2159C47.9271 50.4583 46.9384 49.4053 46.2415 48.0568C45.5445 46.7008 45.196 45.1288 45.196 43.3409C45.196 41.5379 45.5445 39.9621 46.2415 38.6136C46.9384 37.2576 47.9271 36.2045 49.2074 35.4545C50.4953 34.697 52.0218 34.3182 53.7869 34.3182C55.5521 34.3182 57.0748 34.697 58.3551 35.4545C59.643 36.2045 60.6354 37.2576 61.3324 38.6136C62.0294 39.9621 62.3778 41.5379 62.3778 43.3409C62.3778 45.1288 62.0294 46.7008 61.3324 48.0568C60.6354 49.4053 59.643 50.4583 58.3551 51.2159C57.0748 51.9659 55.5521 52.3409 53.7869 52.3409ZM53.8097 48.5909C54.6127 48.5909 55.2831 48.3636 55.821 47.9091C56.3589 47.447 56.7642 46.8182 57.0369 46.0227C57.3172 45.2273 57.4574 44.322 57.4574 43.3068C57.4574 42.2917 57.3172 41.3864 57.0369 40.5909C56.7642 39.7955 56.3589 39.1667 55.821 38.7045C55.2831 38.2424 54.6127 38.0114 53.8097 38.0114C52.9991 38.0114 52.3172 38.2424 51.7642 38.7045C51.2188 39.1667 50.8059 39.7955 50.5256 40.5909C50.2528 41.3864 50.1165 42.2917 50.1165 43.3068C50.1165 44.322 50.2528 45.2273 50.5256 46.0227C50.8059 46.8182 51.2188 47.447 51.7642 47.9091C52.3172 48.3636 52.9991 48.5909 53.8097 48.5909ZM71.9574 52.2841C70.6316 52.2841 69.4309 51.9432 68.3551 51.2614C67.2869 50.572 66.4384 49.5606 65.8097 48.2273C65.1884 46.8864 64.8778 45.2424 64.8778 43.2955C64.8778 41.2955 65.1998 39.6326 65.8438 38.3068C66.4877 36.9735 67.3438 35.9773 68.4119 35.3182C69.4877 34.6515 70.6657 34.3182 71.946 34.3182C72.9233 34.3182 73.7377 34.4848 74.3892 34.8182C75.0483 35.1439 75.5786 35.553 75.9801 36.0455C76.3892 36.5303 76.6998 37.0076 76.9119 37.4773H77.0597V28.7273H81.8892V52H77.1165V49.2045H76.9119C76.6847 49.6894 76.3627 50.1705 75.946 50.6477C75.5369 51.1174 75.0028 51.5076 74.3438 51.8182C73.6922 52.1288 72.8968 52.2841 71.9574 52.2841ZM73.4915 48.4318C74.2718 48.4318 74.9309 48.2197 75.4688 47.7955C76.0142 47.3636 76.4309 46.7614 76.7188 45.9886C77.0142 45.2159 77.1619 44.3106 77.1619 43.2727C77.1619 42.2348 77.018 41.3333 76.7301 40.5682C76.4422 39.803 76.0256 39.2121 75.4801 38.7955C74.9347 38.3788 74.2718 38.1705 73.4915 38.1705C72.696 38.1705 72.0256 38.3864 71.4801 38.8182C70.9347 39.25 70.5218 39.8485 70.2415 40.6136C69.9612 41.3788 69.821 42.2652 69.821 43.2727C69.821 44.2879 69.9612 45.1856 70.2415 45.9659C70.5294 46.7386 70.9422 47.3447 71.4801 47.7841C72.0256 48.2159 72.696 48.4318 73.4915 48.4318ZM85.9602 52V28.7273H90.8807V47.9432H100.858V52H85.9602ZM104.026 52V34.5455H108.866V52H104.026ZM106.457 32.2955C105.738 32.2955 105.12 32.0568 104.605 31.5795C104.098 31.0947 103.844 30.5152 103.844 29.8409C103.844 29.1742 104.098 28.6023 104.605 28.125C105.12 27.6402 105.738 27.3977 106.457 27.3977C107.177 27.3977 107.791 27.6402 108.298 28.125C108.813 28.6023 109.071 29.1742 109.071 29.8409C109.071 30.5152 108.813 31.0947 108.298 31.5795C107.791 32.0568 107.177 32.2955 106.457 32.2955ZM122.131 34.5455V38.1818H111.358V34.5455H122.131ZM113.824 52V33.2841C113.824 32.0189 114.07 30.9697 114.562 30.1364C115.062 29.303 115.744 28.678 116.608 28.2614C117.472 27.8447 118.453 27.6364 119.551 27.6364C120.294 27.6364 120.972 27.6932 121.585 27.8068C122.206 27.9205 122.669 28.0227 122.972 28.1136L122.108 31.75C121.919 31.6894 121.684 31.6326 121.403 31.5795C121.131 31.5265 120.85 31.5 120.562 31.5C119.85 31.5 119.354 31.6667 119.074 32C118.794 32.3258 118.653 32.7841 118.653 33.375V52H113.824ZM132.418 52.3409C130.622 52.3409 129.077 51.9773 127.781 51.25C126.493 50.5152 125.501 49.4773 124.804 48.1364C124.107 46.7879 123.759 45.1932 123.759 43.3523C123.759 41.5568 124.107 39.9811 124.804 38.625C125.501 37.2689 126.482 36.2121 127.747 35.4545C129.02 34.697 130.512 34.3182 132.224 34.3182C133.376 34.3182 134.448 34.5038 135.44 34.875C136.44 35.2386 137.312 35.7879 138.054 36.5227C138.804 37.2576 139.387 38.1818 139.804 39.2955C140.221 40.4015 140.429 41.697 140.429 43.1818V44.5114H125.69V41.5114H135.872C135.872 40.8144 135.721 40.197 135.418 39.6591C135.115 39.1212 134.694 38.7008 134.156 38.3977C133.626 38.0871 133.009 37.9318 132.304 37.9318C131.569 37.9318 130.918 38.1023 130.349 38.4432C129.789 38.7765 129.349 39.2273 129.031 39.7955C128.713 40.3561 128.55 40.9811 128.543 41.6705V44.5227C128.543 45.3864 128.702 46.1326 129.02 46.7614C129.346 47.3902 129.804 47.875 130.395 48.2159C130.986 48.5568 131.687 48.7273 132.497 48.7273C133.035 48.7273 133.527 48.6515 133.974 48.5C134.421 48.3485 134.804 48.1212 135.122 47.8182C135.44 47.5152 135.683 47.1439 135.849 46.7045L140.327 47C140.099 48.0758 139.634 49.0152 138.929 49.8182C138.232 50.6136 137.33 51.2348 136.224 51.6818C135.126 52.1212 133.857 52.3409 132.418 52.3409Z" fill="#0E0E0E"/>
<path d="M131.664 28.7639C117.645 23.2927 128.876 15.0857 124.558 5.24037C124.558 5.24037 132.233 4.98862 136.706 13.3288C141.178 21.6689 131.264 25.3938 139.334 30.9581L138.595 31.7854C137.42 31.2546 134.389 29.9073 131.664 28.7639Z" fill="#9CD69C"/>
<path d="M134.404 27.6173C127.65 18.3304 133.242 13.6019 124.439 5.30065C124.439 5.30065 131.886 8.89603 132.628 14.9461C133.37 20.9961 132.441 24.0726 139.043 31.2536L138.624 31.7728C137.901 31.063 136.056 29.1854 134.404 27.6173Z" fill="white"/>
<path d="M147.307 28.7639C161.325 23.2927 150.095 15.0857 154.413 5.24037C154.413 5.24037 146.737 4.98862 142.265 13.3288C137.793 21.6689 147.707 25.3938 139.636 30.9581L140.376 31.7854C141.551 31.2546 144.582 29.9073 147.307 28.7639Z" fill="#9CD69C"/>
<path d="M144.567 27.6173C151.321 18.3304 145.728 13.6019 154.532 5.30065C154.532 5.30065 147.085 8.89603 146.342 14.9461C145.6 20.9961 146.529 24.0726 139.928 31.2536L140.347 31.7728C141.07 31.063 142.915 29.1854 144.567 27.6173Z" fill="white"/>
</svg>
